<svg xmlns="http://www.w3.org/2000/svg" viewBox="0 0 141.73 151.91"><defs><style>.cls-1{fill:#66a3d9;}.cls-2{fill:#fff;}.cls-3{fill:#023373;}.cls-4{fill:#dbe6ff;}</style></defs><title>ic_chad</title><g id="Capa_2" data-name="Capa 2"><g id="Capa_1-2" data-name="Capa 1"><ellipse class="cls-1" cx="70.87" cy="80.92" rx="70.87" ry="70.98"/><rect class="cls-2" x="20.66" y="118.76" width="100.49" height="33.05"/><path class="cls-2" d="M136.18,27.94a11,11,0,0,1-22,0,9.93,9.93,0,0,1,.45-3,11.17,11.17,0,0,0,21.15,0A9.93,9.93,0,0,1,136.18,27.94Z"/><polygon class="cls-3" points="131.07 38.7 131.07 43.69 128.11 43.69 128.11 78.83 78.91 78.83 78.91 118.71 62.94 118.71 62.94 78.98 14.05 78.98 14.05 43.84 11.09 43.84 11.09 38.85 22.92 38.85 22.92 43.84 20.47 43.84 20.37 74.24 62.94 74.15 62.94 52.52 78.91 52.52 78.91 74 121.79 74.09 121.7 43.69 119.25 43.69 119.25 38.7 131.07 38.7"/><path class="cls-2" d="M6,28.09A10.79,10.79,0,0,0,17,38.64,10.79,10.79,0,0,0,28,28.09a9.93,9.93,0,0,0-.45-3A11,11,0,0,1,17,32.7,11,11,0,0,1,6.43,25.12,9.93,9.93,0,0,0,6,28.09Z"/><rect class="cls-2" x="31.42" width="79.63" height="56.77" rx="12" ry="12"/><rect class="cls-3" x="36.49" y="2.7" width="68" height="51.37" rx="12" ry="12"/><ellipse class="cls-4" cx="59.82" cy="28.84" rx="6.75" ry="14.63"/><ellipse class="cls-4" cx="82.67" cy="28.62" rx="6.75" ry="14.63"/></g></g></svg>