<svg xmlns="http://www.w3.org/2000/svg" viewBox="0 0 141.73 167.24"><defs><style>.cls-1{fill:#66a3d9;}.cls-2{fill:#023373;}.cls-3{fill:#fff;}</style></defs><title>ic_scriba</title><g id="Capa_2" data-name="Capa 2"><g id="Capa_1-2" data-name="Capa 1"><ellipse class="cls-1" cx="70.87" cy="83.62" rx="70.87" ry="70.98"/><path class="cls-2" d="M66,134.1a24.3,24.3,0,0,1,2.73-.52,7.77,7.77,0,0,1,1.41-.06,2.28,2.28,0,0,1,.72.15.74.74,0,0,1,.5.64,2.36,2.36,0,0,1-.67,1.33,11.48,11.48,0,0,1-1,1c-.69.64-1.43,1.21-2.17,1.77a108.22,108.22,0,0,1-9.33,6.08c-.81.47-1.59.94-2.43,1.39a27,27,0,0,0-2.41,1.31,11.08,11.08,0,0,0-2.09,1.62,2.26,2.26,0,0,0-.79,2,3.46,3.46,0,0,0,1.6,1.73,13.41,13.41,0,0,0,2.41,1.15,31.78,31.78,0,0,0,5.27,1.42h.07a8.32,8.32,0,0,1,3,1.61,2,2,0,0,1,.66,1.81,2.94,2.94,0,0,1-.93,1.57,19.33,19.33,0,0,1-5.67,3.26,64,64,0,0,1-6.08,2.16c-2.06.62-4.12,1.2-6.21,1.68a110.55,110.55,0,0,0,12-4.41,18.84,18.84,0,0,0,5.33-3.26c.73-.72,1-1.58.25-2.19A7.63,7.63,0,0,0,59.54,156l.07,0a32.64,32.64,0,0,1-5.46-1.41,14.34,14.34,0,0,1-2.6-1.21,4.22,4.22,0,0,1-2-2.31,2.52,2.52,0,0,1,.16-1.67,4.56,4.56,0,0,1,.88-1.27,11.94,11.94,0,0,1,2.3-1.76,27.73,27.73,0,0,1,2.48-1.32c.79-.41,1.61-.89,2.41-1.34,3.2-1.85,6.41-3.68,9.43-5.79.75-.53,1.49-1.08,2.2-1.66a11.06,11.06,0,0,0,1-.92,2.13,2.13,0,0,0,.64-1.06c0-.34-.5-.5-.92-.54a7.57,7.57,0,0,0-1.37,0A27.69,27.69,0,0,0,66,134.1Z"/><path class="cls-3" d="M43.24,135.21c-9.83-8.15,0-47.24,0-47.24,4-19,40.49-52.13,40.49-52.13C93.21,23.38,113.81,0,113.81,0V7.06c2.22,33.38-7.52,75.48-7.52,75.48-3,12.93-25.56,35.78-36.91,46.63a28.49,28.49,0,0,1-15,7.47l-4.5.76Z"/><path class="cls-2" d="M44.4,167.24l4.7-29.85c-2.48-9.66,56.32-113.73,56.32-113.73s-63.54,95-62.18,111.54C44.64,152.27,44.4,167.24,44.4,167.24Z"/><polygon class="cls-2" points="110.71 58.49 95.22 67.02 110.05 62.76 110.71 58.49"/><polygon class="cls-2" points="99.8 16.21 99.8 25.38 105.42 9.64 99.8 16.21"/><polygon class="cls-2" points="64.19 55.69 66.98 77.91 71.19 48.15 64.19 55.69"/><polygon class="cls-2" points="46.13 80.29 48.53 89.62 49.08 75.14 46.13 80.29"/><polygon class="cls-2" points="74.32 105.38 100.97 93.57 95.22 101.47 74.32 105.38"/></g></g></svg>