<svg xmlns="http://www.w3.org/2000/svg" viewBox="0 0 141.73 151.25"><defs><style>.cls-1{fill:#66a3d9;}.cls-2{fill:#fff;}.cls-3,.cls-4,.cls-5{fill:#023373;stroke:#023373;stroke-miterlimit:10;}.cls-4{stroke-width:2px;}.cls-5{stroke-width:3px;}</style></defs><title>ic_wan-shi-tong</title><g id="Capa_2" data-name="Capa 2"><g id="Capa_1-2" data-name="Capa 1"><ellipse class="cls-1" cx="70.87" cy="76.61" rx="70.87" ry="70.98"/><polyline class="cls-2" points="105.99 99.08 123.03 13.43 132.42 18.18 110.82 99.94 105.99 99.09"/><path class="cls-2" d="M14.66,126.86l6.77,16.34a.24.24,0,0,0,.29.15l71.86-31,.71-6.89S14.61,126.74,14.66,126.86Z"/><polygon class="cls-2" points="94.33 99.72 12.69 103.69 10.85 127.59 94.16 105.58 94.33 99.72"/><polygon class="cls-2" points="123.02 13.43 105.99 99.09 87.81 85.22 102.92 17.26 123.02 13.43"/><polygon class="cls-2" points="70.9 19.58 84.9 21.12 103.43 98.55 98.74 97.68 70.9 19.58"/><polygon class="cls-2" points="94.45 95.01 15.75 78.88 8.36 101.81 94.28 105.49 94.45 95.01"/><polygon class="cls-2" points="34.87 50.05 25.36 69.96 94.28 105.49 94.56 88.43 34.87 50.05"/><polygon class="cls-2" points="84.74 87.49 60.7 27.12 75.97 24.38 98.96 97.74 84.74 87.49"/><polygon class="cls-2" points="81.45 79.22 34.83 46.23 28.61 59.38 95.6 96.47 81.45 79.22"/><path class="cls-3" d="M112.48,97.8,94.45,95l-2.11,18.23S111.5,112.29,112.48,97.8Z"/><polyline class="cls-4" points="93.57 112.39 12.17 150.35 93.72 110.42"/><line class="cls-5" x1="110.82" y1="99.94" x2="137.33" y2="0.39"/></g></g></svg>