<svg xmlns="http://www.w3.org/2000/svg" viewBox="0 0 425.2 456"><defs><style>.cls-1{fill:#191c21;}.cls-2{fill:#b9b9b9;}.cls-3{fill:#023373;}.cls-4{fill:#dbe6ff;}.cls-5,.cls-6,.cls-7{fill:#66a3d9;}.cls-6{stroke:#fff;}.cls-6,.cls-7{stroke-linecap:round;stroke-linejoin:round;stroke-width:0.24px;}.cls-7{stroke:#f2f1f1;}</style></defs><title>ic_zhuli-logo</title><g id="Capa_2" data-name="Capa 2"><g id="Capa_1-2" data-name="Capa 1"><path class="cls-1" d="M217.74,23.29l-.49.16.21-.25Z"/><path class="cls-1" d="M218.22,23.45l-.48-.16.27-.09Z"/><path class="cls-2" d="M217.74,23.29l-.49.16.21-.25Z"/><path class="cls-2" d="M218.22,23.45l-.48-.16.27-.09Z"/><path class="cls-1" d="M217.74,23.29l-.49.16.21-.25Z"/><path class="cls-1" d="M218.22,23.45l-.48-.16.27-.09Z"/><path class="cls-1" d="M217.74,23.29l-.49.16.21-.25Z"/><path class="cls-1" d="M218.22,23.45l-.48-.16.27-.09Z"/><path class="cls-1" d="M127.25,130.68a44.29,44.29,0,0,1-1.48-4.23c-.57,5.53-1,11.5-1.3,17.89l12.63.12Zm33.68,3.95a97.2,97.2,0,0,1-3.37-27.14v-.09l-.12.12c-8.06,7.95-14.17,19.71-13.57,37l22.42.21Zm28.38,8.82a98.92,98.92,0,0,1-3.11-33.11c0-.2,0-.4,0-.6l-.54.53c-7.64,7.58-13.48,18.59-13.49,34.52l17.9.17Zm27.17-26.58a44.88,44.88,0,0,0-15.28,28.2l32.83.31A45,45,0,0,0,216.48,116.87Zm46.81,28.78c-.3-15.63-6.32-26.4-14-33.8a99.9,99.9,0,0,1-3,33.64Zm15.59-40.09,0,0-.95-.19h-.07a98.72,98.72,0,0,1-3.24,31.38l-4.77,9,24.77.23C295.65,126.36,288.2,113.7,278.88,105.56Zm0,0,0,0-.95-.19h-.07a98.72,98.72,0,0,1-3.24,31.38l-4.77,9,24.77.23C295.65,126.36,288.2,113.7,278.88,105.56Zm-15.59,40.09c-.3-15.63-6.32-26.4-14-33.8a99.9,99.9,0,0,1-3,33.64Zm-46.81-28.78a44.88,44.88,0,0,0-15.28,28.2l32.83.31A45,45,0,0,0,216.48,116.87Zm-27.17,26.58a98.92,98.92,0,0,1-3.11-33.11c0-.2,0-.4,0-.6l-.54.53c-7.64,7.58-13.48,18.59-13.49,34.52l17.9.17Zm-28.38-8.82a97.2,97.2,0,0,1-3.37-27.14v-.09l-.12.12c-8.06,7.95-14.17,19.71-13.57,37l22.42.21Zm-33.68-3.95a44.29,44.29,0,0,1-1.48-4.23c-.57,5.53-1,11.5-1.3,17.89l12.63.12Z"/><path class="cls-3" d="M218.66,0C140,0,76.24,60.22,76.24,134.51c0,3.15,2.22,206.92,2.22,206.92h279.2l2.84-194.75q.57-6,.57-12.17C361.07,60.22,297.31,0,218.66,0ZM124.47,144.34c.28-6.39.73-12.36,1.3-17.89a44.29,44.29,0,0,0,1.48,4.23l9.85,13.78Zm19.4.19c-.6-17.3,5.51-29.06,13.57-37l.12-.12v.09a97.2,97.2,0,0,0,3.37,27.14l5.36,10.11Zm28.34.26c0-15.93,5.85-26.94,13.49-34.52l.54-.53c0,.2,0,.4,0,.6a98.92,98.92,0,0,0,3.11,33.11l.8,1.51Zm29,.28a44.88,44.88,0,0,1,15.28-28.2A45,45,0,0,1,234,145.38Zm45,.42a99.9,99.9,0,0,0,3-33.64c7.68,7.4,13.7,18.17,14,33.8Zm48.35.46-24.77-.23,4.77-9a98.72,98.72,0,0,0,3.24-31.38h.07l.95.19,0,0C288.2,113.7,295.65,126.36,294.59,145.95Z"/><path class="cls-4" d="M345.74,186.51a44.41,44.41,0,0,1-9.13,10.68s-14.49,15.51-16.2,18.68a6.2,6.2,0,0,1-5.11,2,13.45,13.45,0,0,1-5.15-1.22l-15.72,49.68a14.51,14.51,0,0,1-5.89,7.75L222.86,317a9.19,9.19,0,0,1-10,0L147.14,274a14.49,14.49,0,0,1-5.88-7.75l-34-107.54,16.94,2.41a322.53,322.53,0,0,1,1.61-34.7,44.29,44.29,0,0,0,1.48,4.23l17.83,24.95c-4.19-23.52,2.68-38.56,12.36-48.11l.12-.12v.09a97.2,97.2,0,0,0,3.37,27.14l12.53,23.63c-4.17-23.44,2.62-38.44,12.24-48l.54-.53c0,.2,0,.4,0,.6a98.92,98.92,0,0,0,3.11,33.11l12.53,23.64c-4.52-25.34,3.81-40.83,14.64-50.22,12,9.14,22.07,25,17.21,52.31l12.53-23.63a99.31,99.31,0,0,0,3.07-33.7c9.89,9.53,17,24.65,12.77,48.51l12.53-23.64a98.72,98.72,0,0,0,3.24-31.38h.07l.95.19,0,0c10.79,9.42,19.07,24.89,14.56,50.16L306,132.09a82.18,82.18,0,0,0,2.38-11.64c7.45,7.09,13.39,17.31,14.17,32l1.19-2.61s7.75-10.07,16.17-1.89S349,169.05,349,169.05,349,180.68,345.74,186.51Z"/><path class="cls-1" d="M307.65,158.74h0Z"/><path class="cls-1" d="M307.65,158.74h0Z"/><path class="cls-1" d="M307.65,158.74h0Z"/><path class="cls-1" d="M261.26,158.74h0Z"/><path class="cls-1" d="M216.69,158.74h0Z"/><path class="cls-1" d="M216.69,158.74h0Z"/><path class="cls-1" d="M216.69,158.74h0Z"/><path class="cls-1" d="M171.4,158.74h0Z"/><path class="cls-1" d="M171.4,158.74h0Z"/><path class="cls-1" d="M171.4,158.74h0Z"/><path class="cls-1" d="M135.55,158.74h0Z"/><path class="cls-1" d="M135.55,158.74h0Z"/><path class="cls-1" d="M135.55,158.74h0Z"/><path class="cls-1" d="M186.24,109.74c0,.2,0,.4,0,.6l-.5-.07Z"/><path class="cls-1" d="M157.56,107.4v.09l-.12,0Z"/><path class="cls-3" d="M333.88,145.55c-.81,2-2.38,5.08-4.14,8.4-3.76,7.12-20.06,26.75-20.06,26.75,4.29-24,8.68-50.73-1.33-60.25a88.55,88.55,0,0,1-2.12,10.7,8.09,8.09,0,0,1-.67,1.71l-12.12,22.86c4.51-25.27-3.77-40.74-14.56-50.16l0,0-.95-.19h-.07a98.72,98.72,0,0,1-3.24,31.38l-12.53,23.64c4.25-23.86-2.88-39-12.77-48.51a99.31,99.31,0,0,1-3.07,33.7l-12.53,23.63c4.86-27.31-5.19-43.17-17.21-52.31-10.83,9.39-19.16,24.88-14.64,50.22l-12.53-23.64a98.92,98.92,0,0,1-3.11-33.11c0-.2,0-.4,0-.6l-.54.53c-9.62,9.55-16.41,24.55-12.24,48l-12.53-23.63a97.2,97.2,0,0,1-3.37-27.14v-.09l-.12.12c-9.68,9.55-16.55,24.59-12.36,48.11l-17.83-24.95a44.29,44.29,0,0,1-1.48-4.23c-2.07,20.08-2.55,45.81.91,77.36,1.28,11.74,3.1,24.29,5.6,37.65,2.8,15,6.44,31.06,11.1,48.15a546.09,546.09,0,0,1-40.23-76.39c-20.3-47.78-35.58-106.66-9-141.46h21.32a76.3,76.3,0,0,1,22.25-19.81,61.5,61.5,0,0,1,6.91-8.16c12.34-12.43,36.08-26.29,72.24-41,.16-.06.32-.14.5-.2l.48.2c35.91,14.59,60.07,28.62,72.45,41A66.56,66.56,0,0,1,295,49C354.36,79.35,343.89,121.45,333.88,145.55Z"/><path class="cls-3" d="M217.84,208.23s-7.64,21.88-10.33,21.67c-4.08-.33,10.33,6.21,10.33,6.21Z"/><path class="cls-3" d="M308,151.54c-4,7.52-6.93,16.49-15.14,20.23a41.6,41.6,0,0,1-5.3,2c-1.12,8.49-9.39,15.75-19.89,16.85-9.44,1-17.81-3.26-21.1-10-6.38,2.07-11.56,5.22-13.35,10.17,0-6.77-.39-8.93,4-14.05,7.79-9.17,19.11-15.28,31.19-15.87h.23c5.82-.27,11.67.18,17.48-.09C294.6,160.34,300.78,155.91,308,151.54Z"/><path class="cls-3" d="M127.25,151.54c4,7.52,6.93,16.49,15.14,20.23a41.6,41.6,0,0,0,5.3,2c1.12,8.49,9.39,15.75,19.89,16.85,9.44,1,17.81-3.26,21.1-10,6.38,2.07,11.56,5.22,13.35,10.17,0-6.77.39-8.93-4-14.05-7.79-9.17-19.11-15.28-31.19-15.87h-.23c-5.82-.27-11.67.18-17.48-.09C140.61,160.34,134.43,155.91,127.25,151.54Z"/><path class="cls-3" d="M315,150.16a138.35,138.35,0,0,0-41.92-7.76c-5.08-.18-26.77,2.13-37.39,3.85a2,2,0,0,1-1.2-3.83c8.77-4.1,27.23-4.74,32.73-4.8C283.72,137.44,301.79,139.28,315,150.16Z"/><path class="cls-3" d="M120.11,150.16A138.35,138.35,0,0,1,162,142.4c5.08-.18,26.77,2.13,37.39,3.85a2,2,0,0,0,1.2-3.83c-8.77-4.1-27.23-4.74-32.73-4.8C151.41,137.44,133.33,139.28,120.11,150.16Z"/><g id="Abanico"><path class="cls-5" d="M106.84,402.91,0,349.56c38.89-78,119.5-131.66,212.53-131.66S386.37,271.67,425.2,349.84l-106,52.95a118.65,118.65,0,0,0-148.76-57.72l-2.52,1-2.84,1.23a119.16,119.16,0,0,0-58.22,55.63Z"/><path class="cls-6" d="M217.18,337.23l1.36.07,2.75.15,1.6.13,2.48.22,1.68.19,2.36.3,1.7.25,2.31.38,1.69.31,2.3.46L239,340l2.33.55,1.55.39,2.44.67,1.39.39,2.8.88,1,.31,3.77,1.33.06,0L258,346l1,.42,2.62,1.13,1.19.55,2.37,1.12,1.24.62,2.27,1.17,1.23.67,2.23,1.25,1.18.69,2.24,1.36,1.09.68,2.32,1.52.93.62,2.54,1.79.63.45q4.81,3.52,9.22,7.49l.38.35,2.47,2.3.64.62,2.13,2.12.73.76,2,2.08.76.84,1.84,2.1.75.88,1.77,2.16.71.89,1.73,2.27.64.85,1.77,2.49.5.71,2.06,3.11.1.15,2,3.2.41.7,1.47,2.6.44.8,1.72,3.29L212.89,455.88l-106-53a119.16,119.16,0,0,1,44.5-48.43l2-1.24,1.55-.87,2.15-1.2,1.31-.68,2.55-1.3.85-.41,3.23-1.5,2.9-1.25,2.54-1,5-1.8,4.89-1.52.79-.22,4-1,1.3-.31,3.89-.82,1-.21,4.92-.81,1-.12,4-.46,1.61-.15,3.61-.25,1.53-.08,5.08-.12,4.14.07Z"/><path class="cls-7" d="M212.89,455.88,391,298.73"/><path class="cls-7" d="M212.89,455.88,331.72,250"/><path class="cls-7" d="M212.89,455.88v-238"/><path class="cls-7" d="M212.89,455.88,272.3,225.49"/><path class="cls-7" d="M212.89,455.88,94.3,250"/><path class="cls-7" d="M212.89,455.88,153.72,225.49"/><path class="cls-7" d="M212.89,455.88,35,298.73"/></g></g></g></svg>