<svg xmlns="http://www.w3.org/2000/svg" viewBox="0 0 141.73 165.65"><defs><style>.cls-1{fill:#66a3d9;}.cls-2{fill:#fff;}.cls-3{fill:#023373;}.cls-4{fill:#dbe6ff;stroke:#dbe6ff;stroke-miterlimit:10;stroke-width:0.25px;}</style></defs><title>ic_robin</title><g id="Capa_2" data-name="Capa 2"><g id="Capa_1-2" data-name="Capa 1"><ellipse class="cls-1" cx="70.87" cy="79.56" rx="70.87" ry="70.98"/><path class="cls-2" d="M90.61,99.28l-8.4,9.25-3.53,3.87L67.05,120l1-6.5L58,119.86l1.62-7.21-12.07,8.86,2.94-8.44-5.61,3.5L44.62,96.8l-3.06,2.9,8.62-33.56-3.9,3.09s14.57-27.38,13-31.57l1.66-12c.22-.64,5.56-10.84,3.63-20.29-.74-3.68,11.19,1.55,14,2.9a.85.85,0,0,1,.19.1l.37.17-.24-.27-.15-.17L68.89,0S78.39-.74,87,7.6c.28-.26-2.5-4.73-2.66-5,10.25,5.66,15.15,12.63,17.28,19L103,28.85h0a28.2,28.2,0,0,1-1.22,10.75S124.94,62,90.61,99.28Z"/><path class="cls-3" d="M117.94,22.16l-12.1,5.42h0L95.39,24.07,74.75,34.48h-.12L64.55,36.07l.51.22c1.75,4-14,30.29-14,30.29l4.22-3L47,96.32l5.81-3.5L51.35,106l11.24-5.89-3.85,9.76,10.79-7.06-1.33,6.89L79.37,103l-1.51,6.9,14.2-9.76L79,115S72.08,125,68.37,125.24L64,160.66a5.64,5.64,0,0,1-2.33,3.93l-.08.06a5.93,5.93,0,0,1-6.22.24l-6.19-3.43-2.94,1.14c-3.28,1.27-8.33.35-10.63-2.32s-3.15-6.15-2-8.68L44,126.54l-1.86,1,.09-4.2S39.49,94.1,41,91.19l-1.9,2s1.51-16.36,2.28-21.49l-2.28,1.93s4.18-17.71,8.34-26.49c0,0,5.67-11,11.41-12.68l-.41-.2s1.1-8.78,5.86-9.88l0,0,6-.14a6.24,6.24,0,0,0,2.65-.65l3-1.51A2,2,0,0,0,77,19.79l-.49-2,21.21,5.06-.5.25,7.15-2.82h0Z"/><path class="cls-4" d="M84,25.23c0,1.25-1.35,2.26-3,2.26s-3.06-1-3.06-2.26S79.25,23,80.94,23,84,24,84,25.23Z"/></g></g></svg>